<svg enable-background="new 0 0 1618 1621" viewBox="0 0 1618 1621" xmlns="http://www.w3.org/2000/svg"><path d="m206.4 1411-.4.4v-.4z" fill="#ed1b39"/><path d="m1618 0v1426.9c0 107.2-86.8 194.1-194 194.1h-1024c-107.1 0-194-86.9-194-194.1v-14.9h1.5l117.6-.4 365.6.4h502.5c7.7 0 15.4-.4 22.9-1.2 102.6-10.7 184.2-92.2 194.7-194.8 0-.3.1-.6.1-.8.7-7.1 1.1-14.4 1.1-21.7v-986.5z" fill="#ed1b39"/><g enable-background="new" fill="#117ad1"><path d="m1412 194.1v12.9h-986.3c-121.4 0-219.7 98.3-219.7 219.5v985.5l-206 209v-1426.9c0-107.2 86.8-194.1 194-194.1h1024c107.2 0 194 86.9 194 194.1z"/><path d="m206.4 1411-.4.4v-.4z"/></g><g fill="#fff"><path d="m206.4 1411-.4.4v-.4z"/><path d="m425.7 207c-121.4 0-219.7 98.3-219.7 219.5v984.5h.4l-.4.4v.6h1.5l117.6-.4 365.6.4h502.5c7.7 0 15.4-.4 22.9-1.2 102.6-10.7 184.2-92.2 194.7-194.8 0-.3.1-.6.1-.8.7-7.1 1.1-14.4 1.1-21.7v-986.5zm568.9 446.8-224.4 480.2c-6.9 16.4 6.2 34.1 22.5 34.1 4.2 0 8.7-1.2 13.1-4 28.9-18.8 49.8-40.6 63.2-58.7 6.4-7.4 16.9-8.9 24.3-2.5 6 4.5 10.1 10.3 16.1 14.8s6.2 13 1.5 20.7c-23.8 38.4-74.4 102.8-157.7 130.7-50.6 16.6-83.4 9.1-91.7 7.7-9.9-1.8-75.4-16.7-94.2-74.6-8.3-30.4 0-58 3.7-69.2l204.5-434.3-62.8-11.1c-8.3-1.5-14-7.6-14.2-16.1l1.4-27c-.2-8.5 7.9-15.6 16.4-15.8l263.8 2.2c11.7.3 19.9 12 14.5 22.9zm70.7-191.6c-6 61.8-60.9 107.1-122.7 101.1s-107.1-60.9-101.1-122.7 60.9-107.1 122.7-101.1 107 60.9 101.1 122.7z"/><path d="m770.2 1134c-6.9 16.4 6.2 34.1 22.5 34.1 4.2 0 8.7-1.2 13.1-4 28.9-18.8 49.8-40.6 63.2-58.7 6.4-7.4 16.9-8.9 24.3-2.5 6 4.5 10.1 10.3 16.1 14.8s6.2 13 1.5 20.7c-23.8 38.4-74.4 102.8-157.7 130.7-50.6 16.6-83.4 9.1-91.7 7.7-9.9-1.8-75.4-16.7-94.2-74.6-8.3-30.4 0-58 3.7-69.2l204.5-434.3-62.8-11.1c-8.3-1.5-14-7.6-14.2-16.1l1.4-27c-.2-8.5 7.9-15.6 16.4-15.8l263.8 2.2c11.9.4 20 12.1 14.7 23z"/><path d="m1065.3 462.2c-6 61.8-60.9 107.1-122.7 101.1s-107.1-60.9-101.1-122.7 60.9-107.1 122.7-101.1 107 60.9 101.1 122.7z"/></g><path d="m770.2 1134c-6.9 16.4 6.2 34.1 22.5 34.1 4.2 0 8.7-1.2 13.1-4 28.9-18.8 49.8-40.6 63.2-58.7 6.4-7.4 16.9-8.9 24.3-2.5 6 4.5 10.1 10.3 16.1 14.8s6.2 13 1.5 20.7c-23.8 38.4-74.4 102.8-157.7 130.7-50.6 16.6-83.4 9.1-91.7 7.7-9.9-1.8-75.4-16.7-94.2-74.6-8.3-30.4 0-58 3.7-69.2l204.5-434.3-62.8-11.1c-8.3-1.5-14-7.6-14.2-16.1l1.4-27c-.2-8.5 7.9-15.6 16.4-15.8l263.8 2.2c11.9.4 20 12.1 14.7 23z"/><path d="m1065.3 462.2c-6 61.8-60.9 107.1-122.7 101.1s-107.1-60.9-101.1-122.7 60.9-107.1 122.7-101.1 107 60.9 101.1 122.7z"/></svg>